<svg version="1.1" id="Layer_1" xmlns="http://www.w3.org/2000/svg" xmlns:xlink="http://www.w3.org/1999/xlink" x="0px" y="0px"
	 height="200" width="200" viewBox="0 0 200 200" enable-background="new 0 0 200 200" xml:space="preserve">
<g>
	<g>
		<path fill-opacity="0.5" d="M155.37,100.96c-0.2-23.84,19.46-35.3,20.39-35.85c-11.08-16.21-28.35-18.44-34.52-18.69
			c-14.66-1.48-28.61,8.65-36.05,8.65c-7.44,0-18.92-8.44-31.1-8.21c-16,0.22-30.73,9.3-38.98,23.61
			c-16.62,28.82-4.25,71.53,11.94,94.94c7.91,11.44,17.35,24.3,29.75,23.84c11.95-0.46,16.45-7.72,30.89-7.72
			c14.41,0,18.48,7.72,31.09,7.49c12.83-0.23,20.98-11.68,28.83-23.16c9.08-13.28,12.78-26.13,13.04-26.8
			C180.37,138.96,155.62,129.48,155.37,100.96z"/>
		<path fill-opacity="0.5" d="M131.64,30.94c6.58-7.97,11.02-19.06,9.8-30.09c-9.48,0.38-20.95,6.32-27.76,14.29
			c-6.1,7.05-11.43,18.34-9.99,29.15C114.26,45.1,125.07,38.91,131.64,30.94z"/>
	</g>
	<g>
		
			<linearGradient id="SVGID_1_" gradientUnits="userSpaceOnUse" x1="541" y1="-556.0625" x2="541" y2="-699.0444" gradientTransform="matrix(1 0 0 -1 -437.0547 -500.6406)">
			<stop  offset="0" style="stop-color:#F3F4F5"/>
			<stop  offset="0.3145" style="stop-color:#E6E7E8"/>
			<stop  offset="0.9005" style="stop-color:#C5C4C4"/>
			<stop  offset="0.9939" style="stop-color:#BFBEBE"/>
		</linearGradient>
		<path fill="url(#SVGID_1_)" d="M155.37,110.11c-0.2-23.84,19.46-35.3,20.39-35.85c-11.08-16.21-28.35-18.44-34.52-18.69
			c-14.66-1.48-28.61,8.65-36.05,8.65c-7.44,0-18.92-8.44-31.1-8.21c-16,0.22-30.73,9.3-38.98,23.61
			c-16.62,28.82-4.25,71.53,11.94,94.94c7.91,11.44,17.35,24.3,29.75,23.84c11.95-0.46,16.45-7.72,30.89-7.72
			c14.41,0,18.48,7.72,31.09,7.49c12.83-0.23,20.98-11.68,28.83-23.16c9.08-13.28,12.78-26.13,13.04-26.8
			C180.37,148.12,155.62,138.63,155.37,110.11z"/>
		<path fill="#F6F7F7" d="M131.64,40.1c6.58-7.98,11.02-19.06,9.8-30.09c-9.48,0.38-20.95,6.32-27.76,14.29
			c-6.1,7.05-11.43,18.34-9.99,29.15C114.26,54.25,125.07,48.06,131.64,40.1z"/>
		<path fill="#BFBEBE" d="M76.79,198.42c11.95-0.46,16.45-7.72,30.89-7.72c14.41,0,18.48,7.72,31.09,7.47
			c12.83-0.22,20.98-11.67,28.83-23.16c3.98-5.79,6.94-11.53,8.98-16.2c-6.94-0.12-14.68-0.2-20.83-0.2
			c-15.15,0-21.15-2.99-49.63-2.99c-28.52,0-33.8,3.83-47.87,4.88c-6.46,0.49-13.42,0.53-19.08,0.42c2.43,5,5.1,9.59,7.89,13.62
			C54.96,186.02,64.4,198.89,76.79,198.42z"/>
	</g>
</g>
</svg>